<svg width="69" height="20" viewBox="0 0 69 20" fill="none" xmlns="http://www.w3.org/2000/svg">
<path d="M7.5293 15.2344C3.49609 15.2344 0.703125 12.1875 0.703125 7.73438C0.703125 3.16406 3.59375 0.214844 7.5 0.214844C10.752 0.214844 13.3691 2.26562 13.7891 5.27344H11.1621C10.8008 3.63281 9.43359 2.5293 7.56836 2.5293C4.96094 2.5293 3.30078 4.58008 3.30078 7.73438C3.30078 10.8789 4.9707 12.9199 7.58789 12.9199C9.73633 12.9199 11.3184 11.5234 11.3379 9.46289H7.95898V7.42188H13.8867V9.17969C13.8867 12.7246 11.2012 15.2344 7.5293 15.2344ZM18.3258 15.166C16.275 15.166 14.7613 14.1309 14.7613 12.0703C14.7613 9.72656 16.6852 9.15039 18.8141 8.92578C20.7281 8.71094 21.3824 8.68164 21.3824 7.97852V7.90039C21.3824 7.02148 20.6793 6.39648 19.4977 6.39648C18.2965 6.39648 17.4957 7.02148 17.4273 7.89062H15.0543C15.1715 5.83984 16.8512 4.48242 19.5465 4.48242C22.232 4.48242 23.8238 5.82031 23.8238 7.96875V15H21.402V13.5449H21.3629C20.8746 14.4629 20.0055 15.166 18.3258 15.166ZM18.9312 13.3398C20.5426 13.3398 21.3922 12.3828 21.3922 11.1816V10.0684C21.0895 10.2637 20.1324 10.4199 19.1168 10.5762C18.0621 10.7324 17.1637 11.1133 17.1637 12.0508C17.1637 12.8613 17.857 13.3398 18.9312 13.3398ZM27.8625 9.16992V15H25.4016V4.6875H27.8234V6.26953C28.5266 5.10742 29.5715 4.48242 30.9875 4.48242C33.1457 4.48242 34.6691 5.9082 34.6691 8.55469V15H32.1984V8.94531C32.1984 7.43164 31.4367 6.64062 30.1184 6.64062C28.8293 6.64062 27.8625 7.41211 27.8625 9.16992ZM41.7059 4.6875V6.66992H39.6063V12.041C39.6063 12.7734 39.8504 13.0176 40.6512 13.0176H41.7059V15H40.2215C38.1219 15 37.1355 14.1699 37.1355 12.4023V6.66992H35.3387V4.6875H37.1355V1.875H39.6063V4.6875H41.7059ZM47.2973 4.6875V6.66992H45.1977V12.041C45.1977 12.7734 45.4418 13.0176 46.2426 13.0176H47.2973V15H45.8129C43.7133 15 42.727 14.1699 42.727 12.4023V6.66992H40.9301V4.6875H42.727V1.875H45.1977V4.6875H47.2973ZM48.25 15V4.6875H50.7109V15H48.25ZM49.4805 3.1543C48.6406 3.1543 48.0059 2.54883 48.0059 1.74805C48.0059 0.957031 48.6406 0.351562 49.4805 0.351562C50.3203 0.351562 50.9551 0.957031 50.9551 1.74805C50.9551 2.54883 50.3203 3.1543 49.4805 3.1543ZM57.7965 4.6875V6.66992H55.6969V15H53.2262V6.66992H51.3707V4.6875H53.2262V3.18359C53.2262 1.40625 54.3199 0.449219 56.3609 0.449219H57.7965V2.43164H56.8492C56.0094 2.43164 55.6969 2.75391 55.6969 3.59375V4.6875H57.7965ZM58.9738 19.082V17.0801H60.1945C60.8586 17.0801 61.1711 16.748 61.4641 15.9375L61.8449 14.9414L57.8703 4.6875H60.4777L62.3723 10.0586C62.6262 10.8203 62.8801 11.582 63.1145 12.3438C63.3488 11.582 63.593 10.8203 63.8566 10.0586L65.7414 4.6875H68.3195L63.7102 16.6992C63.0949 18.3105 62.0793 19.082 60.5852 19.082H58.9738Z" fill="#0D0D12"/>
</svg>
