<svg width="107" height="14" viewBox="0 0 107 14" fill="none" xmlns="http://www.w3.org/2000/svg">
<path d="M5.68141 11.1641C2.91969 11.1641 0.964611 9.00391 0.964611 5.91406C0.964611 2.77637 2.94703 0.650391 5.67457 0.650391C7.88942 0.650391 9.66676 2.0791 9.98805 4.15039H8.44996C8.16285 2.89258 7.09645 2.03809 5.69508 2.03809C3.76051 2.03809 2.48903 3.58984 2.48903 5.91406C2.48903 8.22461 3.76735 9.77637 5.70192 9.77637C7.30153 9.77637 8.54567 8.68262 8.55934 7.0625H6.03688V5.79785H10.0564V6.9668C10.0564 9.39355 8.18336 11.1641 5.68141 11.1641ZM14.3018 11.1641C12.2373 11.1641 10.8428 9.62598 10.8428 7.4043C10.8428 5.16895 12.2373 3.61719 14.3018 3.61719C16.3663 3.61719 17.7539 5.16895 17.7539 7.4043C17.7539 9.62598 16.3663 11.1641 14.3018 11.1641ZM14.3018 9.91992C15.5391 9.91992 16.2979 8.93555 16.2979 7.4043C16.2979 5.85254 15.5323 4.86133 14.3018 4.86133C13.0713 4.86133 12.3057 5.85254 12.3057 7.4043C12.3057 8.94238 13.0645 9.91992 14.3018 9.91992ZM21.0355 11.1162C19.5999 11.1162 18.5335 10.3779 18.5335 8.93555C18.5335 7.28809 19.9144 6.93262 21.3841 6.76172C22.7376 6.59766 23.1888 6.61133 23.1888 6.08496V6.02344C23.1888 5.32617 22.6488 4.82031 21.7327 4.82031C20.8099 4.82031 20.181 5.31934 20.1263 5.98242H18.7113C18.7796 4.6084 19.9486 3.6377 21.7532 3.6377C23.5306 3.6377 24.6175 4.58105 24.6175 6.05078V11H23.1956V9.97461H23.1683C22.8675 10.5557 22.2796 11.1162 21.0355 11.1162ZM21.3294 9.9541C22.6009 9.9541 23.1956 9.18848 23.1956 8.2998V7.45215C22.9974 7.60938 22.2318 7.72559 21.4661 7.83496C20.68 7.95117 19.9691 8.23145 19.9691 8.96289C19.9691 9.58496 20.4886 9.9541 21.3294 9.9541ZM27.4068 0.814453V11H25.9645V0.814453H27.4068ZM31.4335 11.1709C29.7792 11.1709 28.5214 10.3711 28.4188 8.80566H29.8407C29.9227 9.58496 30.4696 10.0225 31.4061 10.0225C32.3221 10.0225 32.8895 9.60547 32.8895 9.03125C32.8895 8.53906 32.4725 8.25195 31.8505 8.11523L30.6542 7.84863C29.2938 7.54785 28.5829 6.85742 28.5829 5.78418C28.5829 4.50586 29.6903 3.62402 31.3446 3.62402C32.9716 3.62402 34.1337 4.52637 34.1747 5.98242H32.7938C32.7802 5.27832 32.2196 4.76562 31.3651 4.76562C30.5448 4.76562 30.0253 5.20312 30.0253 5.75684C30.0253 6.24219 30.4149 6.53613 31.0643 6.68652L32.2948 6.95996C33.703 7.27441 34.3456 7.90332 34.3456 8.94922C34.3456 10.3232 33.1151 11.1709 31.4335 11.1709ZM41.3393 11.1436C39.3637 11.1436 38.0444 9.96777 38.0444 8.29297C38.0444 7.26758 38.5366 6.61816 40.0268 5.51758C39.186 4.45801 38.8715 3.86328 38.8715 3.09766C38.8715 1.68262 39.9106 0.711914 41.4487 0.711914C42.9526 0.711914 43.9711 1.63477 43.9711 2.91992C43.9711 3.78125 43.52 4.54004 42.6176 5.20312L41.9135 5.72949L43.9438 8.16309C44.2241 7.63672 44.395 7.02832 44.395 6.39258H45.7143C45.7143 7.5 45.434 8.49121 44.8598 9.25684L46.3159 11H44.6547L43.9711 10.1934C43.3217 10.7881 42.3305 11.1436 41.3393 11.1436ZM43.1303 9.20215L40.8471 6.50879L40.5668 6.7207C39.8354 7.26074 39.5073 7.70508 39.5073 8.27246C39.5073 9.16113 40.3413 9.91309 41.3871 9.91309C42.0161 9.91309 42.6245 9.64648 43.1303 9.20215ZM41.1 4.75195L41.8452 4.21875C42.3715 3.83594 42.6176 3.39844 42.6176 2.98828C42.6176 2.40723 42.1323 1.92871 41.4487 1.92871C40.7719 1.92871 40.2455 2.40723 40.2455 3.125C40.2455 3.59668 40.478 3.97949 41.1 4.75195ZM49.9873 11V0.814453H53.8633C56.0439 0.814453 57.4111 2.03809 57.4111 3.98633C57.4111 5.4082 56.6387 6.43359 55.3672 6.8916L57.5684 11H55.8594L53.8291 7.14453C53.8086 7.14453 53.7812 7.14453 53.7607 7.14453H51.5049V11H49.9873ZM51.5049 5.85254H53.8018C55.1143 5.85254 55.9141 5.13477 55.9141 3.98633C55.9141 2.83789 55.1074 2.12695 53.7949 2.12695H51.5049V5.85254ZM61.3147 11.1641C59.1751 11.1641 57.8763 9.58496 57.8763 7.4043C57.8763 5.20312 59.2708 3.61719 61.2395 3.61719C63.2835 3.61719 64.6096 5.16211 64.6096 7.39062V7.78027H59.2981C59.346 9.0791 60.0706 9.96094 61.3352 9.96094C62.2786 9.96094 62.9075 9.48926 63.1126 8.80566H64.5003C64.2337 10.2002 62.9485 11.1641 61.3147 11.1641ZM59.3118 6.68652H63.2014C63.0852 5.53809 62.347 4.82031 61.2532 4.82031C60.1663 4.82031 59.4348 5.53809 59.3118 6.68652ZM65.5806 13.8574V3.78125H66.9957V4.82031H67.0162C67.4742 4.02734 68.315 3.6377 69.2515 3.6377C71.1177 3.6377 72.3755 5.16211 72.3755 7.39062C72.3755 9.62598 71.1246 11.1436 69.2447 11.1436C68.3013 11.1436 67.5289 10.7402 67.0435 9.91309H67.023V13.8574H65.5806ZM68.9507 9.89941C70.1129 9.89941 70.9127 9.01758 70.9127 7.39062C70.9127 5.75684 70.1129 4.875 68.9507 4.875C67.7203 4.875 66.9273 5.87305 66.9273 7.39062C66.9273 8.9082 67.7203 9.89941 68.9507 9.89941ZM76.4706 11.1641C74.4061 11.1641 73.0116 9.62598 73.0116 7.4043C73.0116 5.16895 74.4061 3.61719 76.4706 3.61719C78.535 3.61719 79.9227 5.16895 79.9227 7.4043C79.9227 9.62598 78.535 11.1641 76.4706 11.1641ZM76.4706 9.91992C77.7079 9.91992 78.4666 8.93555 78.4666 7.4043C78.4666 5.85254 77.701 4.86133 76.4706 4.86133C75.2401 4.86133 74.4745 5.85254 74.4745 7.4043C74.4745 8.94238 75.2332 9.91992 76.4706 9.91992ZM80.921 11V3.78125H82.3019V4.9502H82.3292C82.5958 4.16406 83.1564 3.69238 84.0724 3.69238C84.2911 3.69238 84.4825 3.71289 84.5988 3.72656V5.07324C84.4894 5.05273 84.1749 5.00488 83.84 5.00488C83.0265 5.00488 82.3634 5.55859 82.3634 6.73438V11H80.921ZM89.1244 3.78125V4.9707H87.6615V9.09277C87.6615 9.62598 87.8461 9.81055 88.4203 9.81055H89.1244V11H88.2152C86.8617 11 86.2123 10.4395 86.2123 9.27734V4.9707H84.9408V3.78125H86.2123V1.8125H87.6615V3.78125H89.1244ZM89.986 11V3.78125H91.4284V11H89.986ZM90.7038 2.53711C90.1911 2.53711 89.7946 2.14746 89.7946 1.65527C89.7946 1.15625 90.1911 0.766602 90.7038 0.766602C91.2165 0.766602 91.6198 1.15625 91.6198 1.65527C91.6198 2.14746 91.2165 2.53711 90.7038 2.53711ZM94.2246 6.84375V11H92.7822V3.78125H94.1972V4.86816C94.6894 4.04785 95.4277 3.6377 96.3779 3.6377C97.8613 3.6377 98.9892 4.61523 98.9892 6.50195V11H97.5468V6.67969C97.5468 5.52441 96.9658 4.92969 95.9677 4.92969C94.9834 4.92969 94.2246 5.50391 94.2246 6.84375ZM103.488 13.9531C101.717 13.9531 100.528 13.1328 100.336 11.7178H101.779C101.963 12.415 102.613 12.7773 103.488 12.7773C104.65 12.7773 105.347 12.1279 105.347 10.959V9.86523H105.34C104.841 10.7061 104.062 11.0957 103.112 11.0957C101.232 11.0957 99.9807 9.57129 99.9807 7.37012C99.9807 5.16211 101.239 3.6377 103.105 3.6377C104.041 3.6377 104.862 4.02051 105.347 4.88184H105.354V3.78125H106.776V10.9043C106.776 13.0918 105.306 13.9531 103.488 13.9531ZM103.406 9.8584C104.636 9.8584 105.429 8.87402 105.429 7.36328C105.429 5.85254 104.636 4.86816 103.406 4.86816C102.243 4.86816 101.444 5.74316 101.444 7.36328C101.444 8.9834 102.243 9.8584 103.406 9.8584Z" fill="white"/>
</svg>
