<svg width="140" height="40" viewBox="0 0 140 40" fill="none" xmlns="http://www.w3.org/2000/svg">
<path fill-rule="evenodd" clip-rule="evenodd" d="M63.9364 24.3817C62.9651 24.6057 62.4626 24.3069 62.4626 23.6635C62.4626 22.782 63.3741 22.4291 64.6762 22.4291C65.249 22.4291 65.7893 22.4786 65.7893 22.4786C65.7893 22.856 64.9692 24.1436 63.9364 24.3817ZM64.9248 15.556C61.8155 15.556 59.5832 16.6993 59.5832 16.6993V20.0605C59.5832 20.0605 62.0478 18.6436 64.0474 18.6436C65.6426 18.6436 65.8387 19.5044 65.7664 20.2184C65.7664 20.2184 65.3059 20.0966 63.9019 20.0966C60.5923 20.0966 58.9223 21.6008 58.9223 24.0122C58.9223 26.2998 60.7993 27.2557 62.3812 27.2557C64.6887 27.2557 65.7037 25.7046 66.015 24.969C66.2315 24.4586 66.2714 24.1145 66.4651 24.1145C66.6874 24.1145 66.6126 24.3613 66.6014 24.8692C66.5831 25.7591 66.6255 26.4316 66.7664 26.9985H69.8266V21.494C69.8266 18.0572 68.6105 15.556 64.9248 15.556Z" fill="#818898"/>
<path fill-rule="evenodd" clip-rule="evenodd" d="M85.0662 21.4114C85.0662 20.406 86.0009 19.4904 87.7166 19.4904C89.5857 19.4904 91.0898 20.3907 91.4269 20.5952V16.7041C91.4269 16.7041 90.2391 15.5603 87.3193 15.5603C84.2416 15.5603 81.6785 17.3612 81.6785 21.2377C81.6785 25.1138 84.0047 27.2634 87.311 27.2634C89.8941 27.2634 91.4335 25.8441 91.4335 25.8441V22.1488C90.9464 22.421 89.5894 23.3632 87.7353 23.3632C85.7724 23.3632 85.0662 22.4596 85.0662 21.4114ZM44.1648 15.8151C44.1652 15.8176 44.3601 16.6538 44.1033 17.7473C43.9723 18.3034 43.7317 18.7764 44.0222 18.7764C44.2225 18.7764 44.223 18.6101 44.4836 18.0141C44.8647 17.143 45.6681 15.5574 47.5455 15.5574C49.3301 15.5574 50.1709 16.6418 50.4494 17.6571C50.6614 18.4285 50.476 18.7764 50.7345 18.7764C50.9182 18.7764 50.9818 18.3761 51.2079 17.8699C51.614 16.963 52.4972 15.5574 54.2835 15.5574C56.9788 15.5574 58.0079 17.5038 58.0079 20.4235V27.0024H54.0038V20.9372C54.0038 19.926 53.8405 18.9451 52.9186 18.9451C52.0645 18.9451 51.6664 20.4588 51.6664 21.436V27.0049H47.5887V20.9376C47.5887 19.6438 47.4062 18.9455 46.4968 18.9455C45.7096 18.9455 45.2504 20.3383 45.2504 21.4364V27.0028H41.1889V15.8151H44.1648ZM71.1595 15.8305C71.1611 15.8313 71.8523 16.2299 73.194 16.2299C74.5381 16.2299 75.2205 15.8305 75.2205 15.8305V27.0053H71.1595V15.8305ZM104.687 15.8305C104.689 15.8313 105.38 16.2299 106.722 16.2299C108.066 16.2299 108.749 15.8305 108.749 15.8305V27.0053H104.687V15.8305ZM80.5962 12.4282V27.0053H76.5347V12.4282H80.5962ZM96.2535 12.4282C96.2539 12.4294 96.4219 12.8484 96.4219 14.0944C96.4219 15.9344 96.0216 17.4318 95.8325 18.0025C95.7323 18.3047 95.5536 18.771 95.8101 18.7793C95.958 18.7839 96.047 18.5611 96.2282 18.1746C96.4086 17.7876 97.303 15.5599 99.6537 15.5599C102.892 15.5599 103.368 18.2116 103.368 21.0831V27.0049H99.3067V20.84C99.3067 19.5756 99.0415 18.9476 98.1941 18.9476C97.1708 18.9476 96.8092 20.532 96.8092 21.4389V27.0049H92.7477V12.4278L96.2535 12.4282ZM113.097 15.8151C113.097 15.8176 113.292 16.6538 113.035 17.7473C112.904 18.3034 112.664 18.7764 112.954 18.7764C113.154 18.7764 113.155 18.6101 113.415 18.0141C113.796 17.143 114.6 15.5574 116.477 15.5574C118.343 15.5574 119.084 16.6467 119.381 17.6571C119.581 18.3342 119.408 18.7764 119.666 18.7764C119.85 18.7764 119.914 18.3761 120.14 17.8699C120.545 16.963 121.429 15.5574 123.215 15.5574C125.911 15.5574 126.94 17.5038 126.94 20.4235V27.0024H122.936V20.9372C122.936 19.926 122.772 18.9451 121.85 18.9451C120.996 18.9451 120.598 20.4588 120.598 21.436V27.0049H116.52V20.9376C116.52 19.6438 116.338 18.9455 115.429 18.9455C114.642 18.9455 114.182 20.3383 114.182 21.4364V27.0028H110.121V15.8151H113.097ZM73.1777 12.3151C71.8054 12.3151 70.6919 13.0416 70.6919 13.9377C70.6919 14.8338 71.8049 15.5603 73.1777 15.5603C74.551 15.5603 75.664 14.8338 75.664 13.9377C75.664 13.0416 74.5514 12.3151 73.1777 12.3151ZM106.706 12.3151C105.333 12.3151 104.22 13.0416 104.22 13.9377C104.22 14.8338 105.333 15.5603 106.706 15.5603C108.079 15.5603 109.192 14.8338 109.192 13.9377C109.192 13.0416 108.079 12.3151 106.706 12.3151Z" fill="#818898"/>
<path fill-rule="evenodd" clip-rule="evenodd" d="M133.858 24.5945C132.927 24.5945 132.242 23.4137 132.242 21.7683C132.242 20.1702 132.945 18.9429 133.826 18.9429C134.955 18.9429 135.437 19.979 135.437 21.7683C135.437 23.6299 134.993 24.5945 133.858 24.5945ZM134.972 15.5535C132.885 15.5535 131.928 17.1183 131.513 18.0098C131.238 18.5987 131.253 18.7721 131.051 18.7721C130.762 18.7721 131.002 18.2991 131.133 17.743C131.391 16.6478 131.195 15.8112 131.195 15.8112H128.221V30.0849H132.28V25.5596C132.76 26.3746 133.65 27.2454 135.022 27.2454C137.959 27.2454 139.436 24.7612 139.436 21.405C139.436 17.6012 137.668 15.5535 134.973 15.5535" fill="#818898"/>
<path fill-rule="evenodd" clip-rule="evenodd" d="M26.8318 18.9309C27.1049 18.8985 27.3663 18.8968 27.6069 18.9309C27.7462 18.6117 27.7699 18.0618 27.6448 17.4629C27.459 16.5727 27.2071 16.034 26.6868 16.118C26.1664 16.2019 26.1473 16.847 26.3335 17.7368C26.4382 18.2377 26.6244 18.6657 26.8318 18.9309Z" fill="#818898"/>
<path fill-rule="evenodd" clip-rule="evenodd" d="M22.3676 19.6354C22.7395 19.7988 22.9685 19.9072 23.0579 19.8125C23.1157 19.7535 23.0982 19.6408 23.0093 19.4958C22.8256 19.1961 22.4478 18.8919 22.0467 18.7211C21.2271 18.3682 20.2491 18.4854 19.4948 19.0274C19.2458 19.2098 19.0097 19.4625 19.0434 19.6159C19.0542 19.6654 19.0916 19.7028 19.1789 19.7152C19.3842 19.7385 20.1016 19.3761 20.9283 19.3254C21.5114 19.2896 21.9952 19.4721 22.3676 19.6354Z" fill="#818898"/>
<path fill-rule="evenodd" clip-rule="evenodd" d="M21.6204 20.0627C21.1354 20.1392 20.8682 20.2992 20.6965 20.4476C20.5502 20.5756 20.4596 20.7173 20.4604 20.8167C20.4609 20.864 20.4812 20.8915 20.4974 20.9052C20.5195 20.9247 20.5456 20.9355 20.5772 20.9355C20.6865 20.9355 20.9322 20.837 20.9322 20.837C21.6067 20.5956 22.0519 20.6251 22.4928 20.6749C22.7364 20.7024 22.8519 20.7173 22.9051 20.6338C22.9209 20.6097 22.94 20.5577 22.8914 20.4788C22.778 20.2946 22.2879 19.9833 21.6204 20.0627Z" fill="#818898"/>
<path fill-rule="evenodd" clip-rule="evenodd" d="M25.3254 21.6306C25.6545 21.7922 26.017 21.7287 26.135 21.4888C26.253 21.249 26.0818 20.9232 25.7526 20.7615C25.4235 20.5998 25.061 20.6634 24.943 20.9032C24.825 21.1435 24.9962 21.4689 25.3254 21.6306Z" fill="#818898"/>
<path fill-rule="evenodd" clip-rule="evenodd" d="M27.442 19.7816C27.1748 19.777 26.9528 20.0704 26.9466 20.4374C26.9404 20.8044 27.1523 21.1049 27.4196 21.1095C27.6868 21.1141 27.9088 20.8206 27.915 20.4536C27.9212 20.0871 27.7093 19.7862 27.442 19.7816Z" fill="#818898"/>
<path fill-rule="evenodd" clip-rule="evenodd" d="M9.47884 26.3939C9.41234 26.3104 9.30304 26.3357 9.19705 26.3607C9.12307 26.3781 9.03953 26.3972 8.94768 26.396C8.75109 26.3923 8.58442 26.3083 8.49091 26.1645C8.36913 25.9775 8.37619 25.6986 8.51044 25.3794L8.5732 25.2364C8.78766 24.7551 9.14635 23.9501 8.74361 23.1828C8.4402 22.6051 7.94561 22.2456 7.35086 22.1699C6.77979 22.0976 6.1921 22.3092 5.81721 22.7227C5.22577 23.3752 5.13309 24.2634 5.24739 24.5772C5.28936 24.6919 5.35503 24.7239 5.40241 24.7306C5.50299 24.7439 5.65179 24.6707 5.74489 24.4201L5.77149 24.3387C5.81305 24.2061 5.89035 23.9592 6.01712 23.7614C6.17007 23.5228 6.40781 23.3586 6.68711 23.2984C6.97139 23.2373 7.26233 23.2917 7.50588 23.4513C7.92026 23.7223 8.07986 24.2302 7.9028 24.7144C7.81137 24.965 7.66257 25.4442 7.6954 25.8378C7.7619 26.6346 8.25192 26.9546 8.69207 26.9887C9.12016 27.0049 9.41941 26.7642 9.49505 26.5888C9.53952 26.4849 9.50212 26.4218 9.47759 26.3947" fill="#818898"/>
<path fill-rule="evenodd" clip-rule="evenodd" d="M13.5505 11.76C14.947 10.1465 16.6656 8.74379 18.2055 7.95618C18.2587 7.92875 18.3152 7.98652 18.2866 8.03889C18.1644 8.26042 17.9287 8.73464 17.8543 9.09415C17.8427 9.15026 17.9038 9.19224 17.9512 9.16024C18.9092 8.5073 20.5754 7.80739 22.0371 7.71761C22.0999 7.71387 22.1302 7.79409 22.0804 7.83274C21.858 8.00315 21.6149 8.23922 21.4374 8.47779C21.4071 8.51852 21.4357 8.57671 21.4864 8.57712C22.5126 8.5846 23.9594 8.9437 24.9024 9.47279C24.966 9.50853 24.9207 9.63197 24.8492 9.61576C23.4224 9.28867 21.087 9.04054 18.6606 9.63239C16.4948 10.1606 14.8415 10.9765 13.6357 11.8535C13.5746 11.8979 13.5011 11.8169 13.5505 11.76ZM20.5047 27.3924L20.5052 27.3932L20.506 27.3949L20.5047 27.3924ZM26.2628 28.0719C26.3043 28.0545 26.3326 28.0075 26.328 27.9605C26.3222 27.9028 26.2707 27.8608 26.2129 27.8666C26.2129 27.8666 23.2333 28.3076 20.4183 27.2772C20.725 26.2806 21.5401 26.6405 22.7724 26.7398C24.9935 26.8724 26.9843 26.5478 28.4556 26.1255C29.7303 25.7598 31.4049 25.0383 32.7053 24.0117C33.1438 24.9751 33.2989 26.0358 33.2989 26.0358C33.2989 26.0358 33.6384 25.9751 33.9223 26.1497C34.1904 26.3147 34.387 26.6575 34.2527 27.5445C33.9792 29.2012 33.2752 30.5461 32.0915 31.7834C31.3708 32.559 30.4963 33.2331 29.4955 33.7235C28.9639 34.0028 28.3982 34.2443 27.8002 34.4392C23.338 35.8968 18.7703 34.2946 17.2982 30.8541C17.1806 30.5956 17.0813 30.3246 17.0031 30.0415C16.3759 27.7743 16.9084 25.0541 18.5733 23.3417C18.676 23.2328 18.7807 23.1036 18.7807 22.9419C18.7807 22.8068 18.6947 22.6642 18.6203 22.5628C18.0376 21.7179 16.0198 20.2781 16.425 17.4918C16.7159 15.4902 18.4665 14.0804 20.0987 14.1639L20.5122 14.1876C21.2196 14.2296 21.8364 14.3202 22.4187 14.3447C23.3933 14.3871 24.2694 14.2454 25.3077 13.3805C25.6576 13.0887 25.9386 12.8356 26.4136 12.7554C26.4635 12.7466 26.5878 12.7022 26.8359 12.7138C27.0894 12.7275 27.3305 12.7969 27.547 12.9412C28.3791 13.4948 28.4972 14.836 28.5404 15.8169C28.5649 16.3767 28.6327 17.7316 28.6559 18.1206C28.7087 19.0101 28.9427 19.1352 29.4157 19.291C29.6817 19.3787 29.9286 19.444 30.2927 19.5462C31.3941 19.8555 32.047 20.1693 32.4589 20.5724C32.7045 20.8243 32.8188 21.0919 32.8541 21.3471C32.9838 22.2948 32.1185 23.4651 29.8272 24.5287C27.3226 25.6912 24.284 25.9855 22.1847 25.7515L21.449 25.6684C19.7699 25.4423 18.8119 27.6122 19.8198 29.0993C20.4694 30.0578 22.2387 30.6812 24.0089 30.6816C28.0674 30.682 31.1871 28.9489 32.3475 27.4522L32.4402 27.32C32.4975 27.234 32.4501 27.1866 32.3791 27.2353C31.431 27.884 27.22 30.4597 22.7154 29.6845C22.7154 29.6845 22.1681 29.5943 21.6685 29.4002C21.2716 29.2456 20.4403 28.8633 20.3393 28.0108C23.9744 29.1351 26.2628 28.0719 26.2628 28.0719ZM6.29668 19.4332C5.03236 19.6788 3.91807 20.3954 3.23687 21.3854C2.82956 21.0458 2.07104 20.3883 1.9368 20.1319C0.849111 18.0662 3.12381 14.0505 4.71315 11.7824C8.64079 6.17773 14.792 1.93547 17.6394 2.7052C18.1024 2.83612 19.6357 4.61374 19.6357 4.61374C19.6357 4.61374 16.7891 6.19311 14.1495 8.39466C10.5926 11.1332 7.90639 15.1136 6.29668 19.4332ZM8.42092 28.9115C8.22974 28.9443 8.0344 28.9572 7.83739 28.9522C5.93509 28.9011 3.88066 27.1887 3.67659 25.158C3.45091 22.9132 4.59803 21.1859 6.62876 20.7761C6.87148 20.727 7.16491 20.6988 7.4812 20.7154C8.61917 20.7777 10.2958 21.6514 10.6786 24.1301C11.0177 26.3255 10.4791 28.5607 8.42092 28.9115ZM34.1879 24.9365C34.1717 24.8787 34.0653 24.4909 33.9194 24.0233C33.7735 23.5553 33.6226 23.2266 33.6226 23.2266C34.2078 22.3509 34.2182 21.5674 34.1401 21.1239C34.0569 20.5741 33.8279 20.1057 33.3666 19.621C32.9053 19.1368 31.9614 18.6406 30.6351 18.2682L29.9394 18.0749C29.936 18.0463 29.9028 16.4345 29.8729 15.7425C29.8508 15.242 29.808 14.4611 29.5657 13.6922C29.2769 12.6511 28.774 11.74 28.146 11.1573C29.8791 9.36098 30.961 7.38179 30.9581 5.68438C30.9531 2.41967 26.9436 1.43174 22.0022 3.47785L20.9553 3.92215C20.9507 3.91758 19.0625 2.06515 19.0343 2.04021C13.4005 -2.8737 -4.21359 16.705 1.41768 21.4602L2.64834 22.503C2.32915 23.3301 2.20362 24.2777 2.30628 25.2964C2.43762 26.6052 3.11259 27.8595 4.20693 28.8288C5.24557 29.7489 6.6113 30.3316 7.93631 30.3304C10.1279 35.3806 15.1353 38.4787 21.0064 38.6533C27.3043 38.8403 32.591 35.8852 34.8063 30.5769C34.9514 30.2045 35.5661 28.5258 35.5661 27.0437C35.5661 25.5545 34.724 24.9365 34.1879 24.9365Z" fill="#818898"/>
</svg>
