<svg width="119" height="32" viewBox="0 0 119 32" fill="none" xmlns="http://www.w3.org/2000/svg">
<path fill-rule="evenodd" clip-rule="evenodd" d="M54.8452 19.7245C54.0196 19.915 53.5925 19.6609 53.5925 19.1141C53.5925 18.3648 54.3672 18.0648 55.474 18.0648C55.9609 18.0648 56.4201 18.1069 56.4201 18.1069C56.4201 18.4276 55.7231 19.5221 54.8452 19.7245ZM55.6853 12.2226C53.0424 12.2226 51.145 13.1945 51.145 13.1945V16.0515C51.145 16.0515 53.2399 14.8472 54.9395 14.8472C56.2954 14.8472 56.4622 15.5788 56.4007 16.1857C56.4007 16.1857 56.0093 16.0822 54.8159 16.0822C52.0027 16.0822 50.5832 17.3607 50.5832 19.4105C50.5832 21.3549 52.1787 22.1675 53.5232 22.1675C55.4846 22.1675 56.3473 20.849 56.612 20.2237C56.796 19.7899 56.8299 19.4974 56.9946 19.4974C57.1836 19.4974 57.12 19.7072 57.1104 20.1389C57.0949 20.8953 57.1309 21.4669 57.2507 21.9488H59.8519V17.2699C59.8519 14.3487 58.8182 12.2226 55.6853 12.2226Z" fill="white" fill-opacity="0.5"/>
<path fill-rule="evenodd" clip-rule="evenodd" d="M72.8055 17.1998C72.8055 16.3452 73.6 15.5669 75.0584 15.5669C76.6471 15.5669 77.9256 16.3321 78.2121 16.506V13.1986C78.2121 13.1986 77.2024 12.2263 74.7207 12.2263C72.1046 12.2263 69.9259 13.7571 69.9259 17.0521C69.9259 20.3468 71.9033 22.174 74.7136 22.174C76.9092 22.174 78.2178 20.9675 78.2178 20.9675V17.8265C77.8037 18.0579 76.6503 18.8588 75.0743 18.8588C73.4057 18.8588 72.8055 18.0908 72.8055 17.1998ZM38.0393 12.4429C38.0397 12.445 38.2053 13.1558 37.987 14.0853C37.8757 14.558 37.6712 14.96 37.9181 14.96C38.0884 14.96 38.0888 14.8187 38.3103 14.3121C38.6342 13.5716 39.3171 12.2239 40.9129 12.2239C42.4299 12.2239 43.1445 13.1456 43.3812 14.0086C43.5614 14.6643 43.4038 14.96 43.6236 14.96C43.7797 14.96 43.8338 14.6198 44.026 14.1895C44.3711 13.4186 45.1218 12.2239 46.6402 12.2239C48.9313 12.2239 49.806 13.8783 49.806 16.36V21.9521H46.4025V16.7967C46.4025 15.9372 46.2636 15.1034 45.4801 15.1034C44.7541 15.1034 44.4156 16.3901 44.4156 17.2206V21.9542H40.9496V16.7971C40.9496 15.6973 40.7945 15.1038 40.0216 15.1038C39.3524 15.1038 38.9621 16.2876 38.9621 17.221V21.9525H35.5098V12.4429H38.0393ZM60.9848 12.456C60.9862 12.4567 61.5737 12.7955 62.7141 12.7955C63.8566 12.7955 64.4367 12.456 64.4367 12.456V21.9546H60.9848V12.456ZM89.4835 12.456C89.4849 12.4567 90.0724 12.7955 91.2131 12.7955C92.3553 12.7955 92.9357 12.456 92.9357 12.456V21.9546H89.4835V12.456ZM69.006 9.56401V21.9546H65.5538V9.56401H69.006ZM82.3147 9.56401C82.3151 9.56507 82.4578 9.92118 82.4578 10.9803C82.4578 12.5443 82.1176 13.8171 81.9569 14.3022C81.8717 14.559 81.7198 14.9554 81.9378 14.9625C82.0636 14.9664 82.1392 14.777 82.2932 14.4485C82.4465 14.1196 83.2068 12.226 85.2049 12.226C87.9573 12.226 88.3622 14.4799 88.3622 16.9207V21.9542H84.9099V16.714C84.9099 15.6394 84.6845 15.1056 83.9642 15.1056C83.0944 15.1056 82.7871 16.4523 82.7871 17.2231V21.9542H79.3348V9.56366L82.3147 9.56401ZM96.6314 12.4429C96.6317 12.445 96.7974 13.1558 96.5791 14.0853C96.4678 14.558 96.2633 14.96 96.5102 14.96C96.6805 14.96 96.6808 14.8187 96.9023 14.3121C97.226 13.5716 97.9092 12.2239 99.505 12.2239C101.091 12.2239 101.72 13.1498 101.973 14.0086C102.143 14.5841 101.996 14.96 102.216 14.96C102.372 14.96 102.426 14.6198 102.618 14.1895C102.963 13.4186 103.714 12.2239 105.232 12.2239C107.523 12.2239 108.398 13.8783 108.398 16.36V21.9521H104.995V16.7967C104.995 15.9372 104.856 15.1034 104.072 15.1034C103.346 15.1034 103.007 16.3901 103.007 17.2206V21.9542H99.5414V16.7971C99.5414 15.6973 99.387 15.1038 98.6136 15.1038C97.9445 15.1038 97.5542 16.2876 97.5542 17.221V21.9525H94.1019V12.4429H96.6314ZM62.7003 9.46792C61.5338 9.46792 60.5874 10.0855 60.5874 10.8471C60.5874 11.6088 61.5334 12.2263 62.7003 12.2263C63.8676 12.2263 64.8136 11.6088 64.8136 10.8471C64.8136 10.0855 63.8679 9.46792 62.7003 9.46792ZM91.1994 9.46792C90.0325 9.46792 89.086 10.0855 89.086 10.8471C89.086 11.6088 90.0321 12.2263 91.1994 12.2263C92.3662 12.2263 93.3127 11.6088 93.3127 10.8471C93.3127 10.0855 92.3666 9.46792 91.1994 9.46792Z" fill="white" fill-opacity="0.5"/>
<path fill-rule="evenodd" clip-rule="evenodd" d="M114.279 19.9054C113.487 19.9054 112.905 18.9018 112.905 17.5031C112.905 16.1448 113.503 15.1015 114.251 15.1015C115.211 15.1015 115.621 15.9823 115.621 17.5031C115.621 19.0855 115.243 19.9054 114.279 19.9054ZM115.226 12.2205C113.452 12.2205 112.638 13.5506 112.285 14.3084C112.052 14.809 112.064 14.9563 111.893 14.9563C111.647 14.9563 111.851 14.5543 111.962 14.0816C112.181 13.1507 112.015 12.4396 112.015 12.4396H109.487V24.5722H112.938V20.7257C113.346 21.4185 114.102 22.1586 115.268 22.1586C117.764 22.1586 119.02 20.0471 119.02 17.1943C119.02 13.9611 117.517 12.2205 115.226 12.2205" fill="white" fill-opacity="0.5"/>
<path fill-rule="evenodd" clip-rule="evenodd" d="M23.3063 15.0913C23.5384 15.0638 23.7606 15.0624 23.9651 15.0913C24.0835 14.82 24.1036 14.3526 23.9973 13.8436C23.8394 13.0868 23.6253 12.629 23.183 12.7004C22.7407 12.7717 22.7244 13.32 22.8827 14.0764C22.9717 14.5021 23.13 14.866 23.3063 15.0913Z" fill="white" fill-opacity="0.5"/>
<path fill-rule="evenodd" clip-rule="evenodd" d="M19.5117 15.6902C19.8279 15.829 20.0225 15.9212 20.0985 15.8407C20.1476 15.7905 20.1327 15.6948 20.0571 15.5715C19.901 15.3168 19.5798 15.0582 19.2389 14.913C18.5423 14.613 17.711 14.7127 17.0698 15.1733C16.8582 15.3284 16.6575 15.5432 16.6861 15.6736C16.6953 15.7156 16.7271 15.7474 16.8013 15.758C16.9758 15.7778 17.5856 15.4697 18.2883 15.4266C18.7839 15.3963 19.1951 15.5514 19.5117 15.6902Z" fill="white" fill-opacity="0.5"/>
<path fill-rule="evenodd" clip-rule="evenodd" d="M18.8766 16.0534C18.4643 16.1184 18.2372 16.2544 18.0913 16.3805C17.9669 16.4893 17.8899 16.6098 17.8906 16.6942C17.891 16.7345 17.9083 16.7578 17.9221 16.7695C17.9408 16.7861 17.963 16.7953 17.9899 16.7953C18.0828 16.7953 18.2916 16.7116 18.2916 16.7116C18.865 16.5063 19.2433 16.5314 19.6182 16.5738C19.8252 16.5971 19.9234 16.6098 19.9686 16.5388C19.982 16.5183 19.9983 16.4741 19.957 16.407C19.8605 16.2505 19.444 15.9859 18.8766 16.0534Z" fill="white" fill-opacity="0.5"/>
<path fill-rule="evenodd" clip-rule="evenodd" d="M22.0258 17.3861C22.3056 17.5235 22.6137 17.4694 22.714 17.2656C22.8143 17.0618 22.6688 16.7848 22.389 16.6474C22.1092 16.5099 21.8011 16.564 21.7008 16.7678C21.6005 16.972 21.746 17.2486 22.0258 17.3861Z" fill="white" fill-opacity="0.5"/>
<path fill-rule="evenodd" clip-rule="evenodd" d="M23.825 15.8144C23.5978 15.8105 23.4091 16.0599 23.4038 16.3719C23.3985 16.6838 23.5787 16.9393 23.8059 16.9431C24.033 16.947 24.2217 16.6976 24.227 16.3857C24.2323 16.0741 24.0521 15.8183 23.825 15.8144Z" fill="white" fill-opacity="0.5"/>
<path fill-rule="evenodd" clip-rule="evenodd" d="M8.55626 21.4349C8.49973 21.3639 8.40682 21.3854 8.31674 21.4066C8.25385 21.4215 8.18284 21.4377 8.10477 21.4367C7.93767 21.4335 7.796 21.3621 7.71651 21.2399C7.613 21.0809 7.61901 20.8439 7.73312 20.5725L7.78646 20.451C7.96876 20.0419 8.27364 19.3576 7.93131 18.7055C7.67342 18.2144 7.25301 17.9088 6.74747 17.8445C6.26206 17.7831 5.76253 17.9629 5.44387 18.3144C4.94115 18.869 4.86237 19.624 4.95952 19.8907C4.9952 19.9882 5.05102 20.0154 5.09129 20.0211C5.17679 20.0324 5.30326 19.9702 5.3824 19.7572L5.40501 19.6879C5.44034 19.5752 5.50604 19.3654 5.61379 19.1972C5.7438 18.9944 5.94588 18.8549 6.18328 18.8037C6.42493 18.7517 6.67222 18.798 6.87924 18.9337C7.23146 19.164 7.36712 19.5957 7.21663 20.0073C7.1389 20.2203 7.01243 20.6277 7.04034 20.9622C7.09686 21.6395 7.51338 21.9115 7.8875 21.9404C8.25138 21.9542 8.50574 21.7497 8.57004 21.6006C8.60784 21.5123 8.57604 21.4586 8.5552 21.4356" fill="white" fill-opacity="0.5"/>
<path fill-rule="evenodd" clip-rule="evenodd" d="M12.0172 8.99604C13.2042 7.62461 14.665 6.43229 15.9739 5.76283C16.0192 5.73951 16.0672 5.78862 16.0428 5.83313C15.939 6.02143 15.7386 6.42452 15.6754 6.7301C15.6655 6.77779 15.7175 6.81348 15.7577 6.78628C16.572 6.23128 17.9883 5.63635 19.2308 5.56004C19.2842 5.55686 19.3099 5.62505 19.2676 5.6579C19.0785 5.80275 18.8719 6.00341 18.721 6.20619C18.6952 6.24082 18.7196 6.29027 18.7627 6.29063C19.635 6.29699 20.8647 6.60222 21.6663 7.05194C21.7204 7.08233 21.6819 7.18725 21.6211 7.17347C20.4083 6.89544 18.4232 6.68453 16.3608 7.1876C14.5198 7.63662 13.1145 8.33011 12.0896 9.07553C12.0377 9.11333 11.9752 9.04444 12.0172 8.99604ZM17.9283 22.2836L17.9286 22.2843L17.9293 22.2857L17.9283 22.2836ZM22.8226 22.8612C22.8579 22.8464 22.882 22.8064 22.8781 22.7665C22.8731 22.7174 22.8293 22.6817 22.7802 22.6867C22.7802 22.6867 20.2475 23.0615 17.8548 22.1857C18.1155 21.3386 18.8083 21.6445 19.8558 21.7289C21.7437 21.8416 23.4359 21.5657 24.6865 21.2068C25.77 20.8959 27.1934 20.2826 28.2988 19.41C28.6715 20.2289 28.8033 21.1305 28.8033 21.1305C28.8033 21.1305 29.0919 21.0789 29.3332 21.2273C29.5611 21.3675 29.7282 21.659 29.614 22.4129C29.3816 23.8211 28.7831 24.9643 27.777 26.016C27.1644 26.6752 26.4211 27.2482 25.5704 27.6651C25.1186 27.9025 24.6377 28.1077 24.1294 28.2734C20.3366 29.5124 16.454 28.1505 15.2027 25.226C15.1027 25.0063 15.0183 24.776 14.9519 24.5354C14.4188 22.6082 14.8713 20.296 16.2866 18.8405C16.3738 18.748 16.4629 18.6381 16.4629 18.5007C16.4629 18.3859 16.3897 18.2647 16.3265 18.1785C15.8312 17.4603 14.116 16.2365 14.4605 13.8681C14.7078 12.1667 16.1958 10.9684 17.5831 11.0394L17.9346 11.0595C18.5359 11.0952 19.0602 11.1722 19.5551 11.1931C20.3836 11.2291 21.1283 11.1086 22.0108 10.3735C22.3082 10.1255 22.547 9.91033 22.9508 9.84214C22.9932 9.83472 23.0989 9.79693 23.3098 9.80682C23.5253 9.81848 23.7302 9.87747 23.9142 10.0001C24.6215 10.4706 24.7218 11.6107 24.7586 12.4444C24.7794 12.9203 24.837 14.072 24.8568 14.4026C24.9016 15.1586 25.1005 15.265 25.5026 15.3975C25.7287 15.472 25.9385 15.5275 26.248 15.6144C27.1842 15.8772 27.7392 16.1439 28.0893 16.4866C28.2981 16.7007 28.3952 16.9282 28.4253 17.1451C28.5355 17.9506 27.8 18.9454 25.8523 19.8495C23.7235 20.8376 21.1406 21.0877 19.3562 20.8888L18.7309 20.8182C17.3037 20.626 16.4894 22.4705 17.3461 23.7345C17.8982 24.5492 19.4022 25.0791 20.9068 25.0794C24.3565 25.0798 27.0083 23.6066 27.9946 22.3345L28.0734 22.2221C28.1221 22.149 28.0819 22.1087 28.0215 22.15C27.2156 22.7015 23.6362 24.8908 19.8074 24.2319C19.8074 24.2319 19.3421 24.1553 18.9175 23.9903C18.5801 23.8589 17.8735 23.5338 17.7877 22.8093C20.8774 23.7649 22.8226 22.8612 22.8226 22.8612ZM5.85142 15.5183C4.77675 15.7271 3.8296 16.3361 3.25058 17.1776C2.90437 16.889 2.25963 16.3301 2.14552 16.1121C1.22099 14.3563 3.15448 10.943 4.50542 9.01511C7.84391 4.25114 13.0724 0.64522 15.4928 1.29949C15.8863 1.41078 17.1896 2.92175 17.1896 2.92175C17.1896 2.92175 14.77 4.26421 12.5263 6.13553C9.50292 8.46329 7.21967 11.8467 5.85142 15.5183ZM7.65703 23.5748C7.49452 23.6027 7.32848 23.6137 7.16103 23.6094C5.54407 23.566 3.79781 22.1105 3.62435 20.3844C3.43252 18.4763 4.40757 17.0081 6.13369 16.6597C6.34 16.618 6.58942 16.594 6.85826 16.6082C7.82554 16.6611 9.25067 17.4037 9.57604 19.5107C9.86432 21.3767 9.40647 23.2767 7.65703 23.5748ZM29.5589 20.1961C29.5452 20.147 29.4547 19.8173 29.3307 19.4199C29.2067 19.0221 29.0785 18.7427 29.0785 18.7427C29.5759 17.9983 29.5847 17.3324 29.5183 16.9554C29.4477 16.488 29.253 16.0899 28.8609 15.678C28.4687 15.2664 27.6664 14.8446 26.5391 14.528L25.9477 14.3638C25.9449 14.3394 25.9166 12.9694 25.8912 12.3812C25.8725 11.9558 25.8361 11.292 25.6301 10.6384C25.3846 9.75347 24.9571 8.97908 24.4233 8.48378C25.8965 6.95691 26.8161 5.27459 26.8136 3.8318C26.8094 1.05679 23.4013 0.217049 19.2011 1.95624L18.3112 2.3339C18.3073 2.33001 16.7024 0.755447 16.6784 0.73425C11.8897 -3.44257 -3.08231 13.1994 1.70427 17.2412L2.75034 18.1276C2.47902 18.8306 2.37232 19.6361 2.45958 20.502C2.57122 21.6145 3.14495 22.6807 4.07513 23.5045C4.95798 24.2867 6.11885 24.782 7.24511 24.7809C9.10795 29.0736 13.3643 31.707 18.3547 31.8553C23.7079 32.0143 28.2016 29.5025 30.0846 24.9904C30.2079 24.6739 30.7304 23.247 30.7304 21.9872C30.7304 20.7214 30.0147 20.1961 29.5589 20.1961Z" fill="white" fill-opacity="0.5"/>
</svg>
