<svg width="110" height="24" viewBox="0 0 110 24" fill="none" xmlns="http://www.w3.org/2000/svg">
<path fill-rule="evenodd" clip-rule="evenodd" d="M11.5914 11.1138H0.537476V0.0598145H11.5914V11.1138ZM109.503 10.5835V8.66717H107.123V5.68801L107.043 5.71268L104.808 6.39657L104.764 6.40995V8.66727H101.236V7.40975C101.236 6.82421 101.367 6.37612 101.625 6.07729C101.881 5.78204 102.248 5.63194 102.715 5.63194C103.051 5.63194 103.399 5.7111 103.749 5.86721L103.837 5.90642V3.88827L103.796 3.87309C103.469 3.75567 103.025 3.69653 102.474 3.69653C101.78 3.69653 101.149 3.84758 100.599 4.14694C100.049 4.44672 99.616 4.87468 99.3127 5.4188C99.0105 5.96229 98.8571 6.58999 98.8571 7.28463V8.66717H97.2001V10.5835H98.8571V18.6566H101.236V10.5835H104.764V15.7138C104.764 17.8267 105.76 18.8975 107.726 18.8975C108.049 18.8975 108.389 18.8596 108.736 18.7855C109.089 18.7094 109.33 18.6334 109.472 18.5523L109.503 18.5337V16.5997L109.406 16.6637C109.277 16.7497 109.116 16.82 108.928 16.8723C108.739 16.9255 108.58 16.9522 108.458 16.9522C107.997 16.9522 107.657 16.8281 107.445 16.5832C107.232 16.3361 107.123 15.9041 107.123 15.2997V10.5835H109.503ZM91.8879 16.9525C91.0246 16.9525 90.3438 16.6662 89.8641 16.1022C89.3815 15.5355 89.1369 14.7274 89.1369 13.7007C89.1369 12.6415 89.3815 11.8124 89.8643 11.2357C90.3444 10.6627 91.0185 10.3718 91.8686 10.3718C92.6934 10.3718 93.35 10.6496 93.8203 11.1978C94.2929 11.7489 94.5328 12.5713 94.5328 13.6429C94.5328 14.7276 94.3073 15.5609 93.8625 16.1183C93.4207 16.6715 92.7564 16.9525 91.8879 16.9525ZM91.9937 8.42652C90.3465 8.42652 89.0381 8.90918 88.1053 9.86113C87.173 10.8132 86.7004 12.1307 86.7004 13.7774C86.7004 15.3414 87.1618 16.5995 88.0719 17.516C88.982 18.4328 90.2205 18.8973 91.7528 18.8973C93.3495 18.8973 94.6318 18.4078 95.5643 17.4427C96.4966 16.4787 96.9689 15.1736 96.9689 13.5654C96.9689 11.9769 96.5257 10.7095 95.6511 9.79904C94.7761 8.88821 93.5454 8.42652 91.9937 8.42652ZM82.8651 8.42652C81.7446 8.42652 80.8178 8.71313 80.1097 9.27822C79.3974 9.84669 79.0361 10.5922 79.0361 11.4944C79.0361 11.9634 79.1141 12.38 79.2675 12.7333C79.422 13.0878 79.6609 13.3999 79.9784 13.6618C80.2935 13.9217 80.7798 14.1938 81.4243 14.4707C81.9661 14.6937 82.3701 14.8823 82.6268 15.0309C82.8777 15.1766 83.0557 15.323 83.1562 15.4656C83.254 15.6051 83.3035 15.7961 83.3035 16.0318C83.3035 16.703 82.8009 17.0295 81.7668 17.0295C81.3832 17.0295 80.9456 16.9494 80.4663 16.7915C79.9905 16.636 79.5413 16.4083 79.1346 16.1163L79.0358 16.0454V18.3356L79.0721 18.3525C79.4087 18.5079 79.833 18.6389 80.3332 18.742C80.8324 18.8452 81.286 18.8977 81.68 18.8977C82.8959 18.8977 83.875 18.6097 84.5895 18.0412C85.3085 17.4689 85.6729 16.7057 85.6729 15.7723C85.6729 15.099 85.4767 14.5215 85.0901 14.0558C84.7061 13.594 84.0396 13.1699 83.11 12.7951C82.3694 12.4978 81.8949 12.251 81.6992 12.0616C81.5105 11.8786 81.4147 11.6199 81.4147 11.2922C81.4147 11.0016 81.533 10.7689 81.7757 10.5804C82.0204 10.391 82.3609 10.2947 82.7881 10.2947C83.1844 10.2947 83.5899 10.3573 83.9932 10.48C84.3962 10.6027 84.7501 10.767 85.0456 10.968L85.1428 11.0344V8.86196L85.1055 8.84594C84.8329 8.72904 84.4734 8.62901 84.0368 8.54784C83.6022 8.46721 83.208 8.42652 82.8651 8.42652ZM72.8348 16.9525C71.9716 16.9525 71.2907 16.6662 70.8111 16.1022C70.3283 15.5355 70.0842 14.7276 70.0842 13.7007C70.0842 12.6415 70.3286 11.8124 70.8116 11.2357C71.2912 10.6627 71.9653 10.3718 72.8157 10.3718C73.6402 10.3718 74.2968 10.6496 74.7672 11.1978C75.24 11.7489 75.4798 12.5713 75.4798 13.6429C75.4798 14.7276 75.2541 15.5609 74.8093 16.1183C74.3675 16.6715 73.7036 16.9525 72.8348 16.9525ZM72.9408 8.42652C71.2932 8.42652 69.9848 8.90918 69.0524 9.86113C68.1202 10.8132 67.6472 12.1307 67.6472 13.7774C67.6472 15.342 68.1089 16.5995 69.019 17.516C69.9291 18.4328 71.1675 18.8973 72.6999 18.8973C74.2964 18.8973 75.579 18.4078 76.5114 17.4427C77.4435 16.4787 77.9161 15.1736 77.9161 13.5654C77.9161 11.9769 77.4728 10.7095 76.598 9.79904C75.7228 8.88821 74.4922 8.42652 72.9408 8.42652ZM64.0364 10.3971V8.66717H61.6866V18.6564H64.0364V13.5465C64.0364 12.6776 64.2334 11.9638 64.6221 11.4246C65.0059 10.8919 65.5174 10.622 66.1418 10.622C66.3534 10.622 66.591 10.6569 66.8483 10.7259C67.103 10.7945 67.2875 10.869 67.3963 10.9475L67.495 11.019V8.65009L67.457 8.63375C67.2381 8.54078 66.9286 8.49388 66.5369 8.49388C65.9464 8.49388 65.418 8.68361 64.9653 9.05718C64.568 9.38552 64.2809 9.83572 64.0613 10.3971H64.0364ZM57.4786 8.42652C56.4006 8.42652 55.4391 8.65768 54.6212 9.11336C53.8017 9.57009 53.1678 10.2222 52.7366 11.0513C52.3073 11.8784 52.0893 12.8446 52.0893 13.9221C52.0893 14.8659 52.3006 15.7321 52.7184 16.4954C53.1363 17.2601 53.7279 17.8582 54.4767 18.2731C55.2245 18.6875 56.0887 18.8976 57.0456 18.8976C58.1623 18.8976 59.1157 18.6743 59.8801 18.234L59.911 18.2163V16.0636L59.8122 16.1357C59.466 16.3879 59.079 16.5892 58.6627 16.7343C58.2473 16.8792 57.8687 16.9525 57.5367 16.9525C56.6147 16.9525 55.8745 16.664 55.3372 16.0952C54.7988 15.5257 54.5258 14.7259 54.5258 13.7196C54.5258 12.7069 54.8105 11.8867 55.3716 11.2814C55.931 10.6779 56.6725 10.3718 57.5755 10.3718C58.3478 10.3718 59.1004 10.6333 59.8124 11.1498L59.911 11.2214V8.95314L59.8792 8.93522C59.6112 8.78522 59.2458 8.66137 58.7921 8.56745C58.3403 8.47374 57.8984 8.42652 57.4786 8.42652ZM50.471 8.66727H48.1212V18.6564H50.471V8.66727ZM49.3201 4.41183C48.9334 4.41183 48.5961 4.54349 48.319 4.80437C48.0407 5.066 47.8995 5.3954 47.8995 5.78414C47.8995 6.16678 48.039 6.49017 48.3146 6.74484C48.5885 6.99876 48.9268 7.12747 49.3202 7.12747C49.7135 7.12747 50.0531 6.99876 50.3302 6.74526C50.6092 6.49017 50.7506 6.16688 50.7506 5.78414C50.7506 5.409 50.613 5.08297 50.3417 4.81492C50.0707 4.54739 49.7269 4.41183 49.3201 4.41183ZM43.4573 7.93026V18.6564H45.8554V4.71762H42.5364L38.3177 15.0709L34.2238 4.71762H30.7696V18.6563H33.0232V7.9292H33.1005L37.4236 18.6564H39.1243L43.3799 7.93026H43.4573ZM12.7426 11.1138H23.7963V0.0598145H12.7426V11.1138ZM11.5911 23.323H0.537476V12.2691H11.5911V23.323ZM12.7426 23.323H23.7963V12.2691H12.7426V23.323Z" fill="white" fill-opacity="0.5"/>
</svg>
