<svg width="81" height="23" viewBox="0 0 81 23" fill="none" xmlns="http://www.w3.org/2000/svg">
<path fill-rule="evenodd" clip-rule="evenodd" d="M73.5527 11.478H72.8786L72.8708 17.4952H69.9632V0.433594H72.8786V8.89916C74.9868 8.89916 77.1107 7.90141 77.1107 5.26119H80.0105C80.0105 7.69419 78.4901 9.95832 76.2251 10.8256L80.8961 17.4952H77.6122L73.5527 11.478ZM22.3595 15.3306C20.1102 15.3306 18.6212 13.6267 18.2058 12.9668C18.7387 8.79149 20.2984 7.47137 22.3595 7.47137C24.3972 7.47137 25.9803 9.06779 25.9803 11.401C25.9803 13.7342 24.3972 15.3306 22.3595 15.3306ZM22.3595 4.90792C18.6918 4.90792 16.6384 7.24881 16.0506 9.65876C15.3844 8.43076 14.8907 6.78831 14.5067 5.26097H9.43601V11.4394C9.43601 13.6805 8.39367 15.3383 6.35601 15.3383C4.31834 15.3383 3.15061 13.6805 3.15061 11.4394L3.17412 5.26097H0.250854V11.4394C0.250854 13.243 0.846479 14.8778 1.93585 16.0444C3.05656 17.2494 4.58481 17.8787 6.35601 17.8787C9.88273 17.8787 12.3436 15.2309 12.3436 11.4394V7.28718C12.7119 8.65333 13.5897 11.2782 15.2669 13.5807L13.6995 22.3226H16.6698L17.7042 16.1288C18.0412 16.4051 18.4017 16.6507 18.7857 16.8733C19.781 17.4873 20.9174 17.8327 22.0931 17.871C22.0931 17.871 22.2733 17.8787 22.3673 17.8787C26.0038 17.8787 28.8957 15.1234 28.8957 11.401C28.8957 7.6786 25.9959 4.90792 22.3595 4.90792ZM64.359 6.58171V5.26161H61.4906V17.4879H64.3982V12.6987C64.3982 9.7515 64.6725 7.63319 68.7086 7.90949V5.11578C66.8277 4.97763 65.3622 5.36138 64.359 6.58171ZM42.0631 13.8119L44.1713 5.26189H47.2827L43.8656 17.4959H40.3702L37.9642 8.80775L35.5348 17.4959H32.0394L28.8104 5.26189H31.7572L33.8576 13.8119L36.1147 5.26189H39.8138L42.0631 13.8119ZM53.6855 15.3383C51.6166 15.3383 50.0648 13.7419 50.0648 11.401C50.0648 9.06011 51.6244 7.47137 53.6855 7.47137C55.7233 7.47137 57.3064 9.06779 57.3064 11.401C57.3064 13.7342 55.7233 15.3383 53.6855 15.3383ZM53.6855 4.90792C50.0256 4.90792 47.1572 7.68628 47.1572 11.401C47.1572 15.1157 50.0256 17.871 53.6855 17.871C57.322 17.871 60.214 15.1157 60.214 11.401C60.214 7.68628 57.3299 4.90792 53.6855 4.90792Z" fill="white" fill-opacity="0.5"/>
</svg>
